Coordinates
version=1
nRows=24
nColumns=38
inDegrees=no

Units are S.I. units (second, meters, Newtons, ...)
If the header above contains a line with 'inDegrees', this indicates whether rotational values are in degrees (yes) or radians (no).

endheader
time	pelvis_tilt	pelvis_list	pelvis_rotation	pelvis_tx	pelvis_ty	pelvis_tz	hip_flexion_r	hip_adduction_r	hip_rotation_r	knee_angle_r	ankle_angle_r	subtalar_angle_r	mtp_angle_r	hip_flexion_l	hip_adduction_l	hip_rotation_l	knee_angle_l	ankle_angle_l	subtalar_angle_l	mtp_angle_l	lumbar_extension	lumbar_bending	lumbar_rotation	arm_flex_r	arm_add_r	arm_rot_r	elbow_flex_r	pro_sup_r	wrist_flex_r	wrist_dev_r	arm_flex_l	arm_add_l	arm_rot_l	elbow_flex_l	pro_sup_l	wrist_flex_l	wrist_dev_l
2.05	-2.81019	1.46627	-1.75108	0.428711	1.40223	0.92316	0.358083	-0.109221	-0.362316	0.184008	0.0987689	0	0	-0.339666	0.0288405	-0.172234	0.167405	0.318004	0	0	-0.258849	-0.0577939	-0.227613	-0.197439	-0.16157	0.146568	0.659494	0.51587	0	0	0.209414	-0.494936	0.26273	0.816259	1.37693	0	0
2.06	-2.81226	1.46754	-1.74418	0.428676	1.41275	0.922274	0.353189	-0.107572	-0.367899	0.192681	0.0976401	0	0	-0.340116	0.0211989	-0.180279	0.189383	0.32641	0	0	-0.257148	-0.0539885	-0.232569	-0.199328	-0.162113	0.145183	0.660938	0.51617	0	0	0.206064	-0.491326	0.262621	0.811245	1.37739	0	0
2.07	-2.81102	1.46901	-1.74022	0.428647	1.42357	0.921394	0.347574	-0.105856	-0.37189	0.203168	0.0959865	0	0	-0.340483	0.0133733	-0.187391	0.211207	0.332957	0	0	-0.254565	-0.0503423	-0.237907	-0.20229	-0.162576	0.143121	0.662706	0.516948	0	0	0.201263	-0.487667	0.262904	0.805894	1.37797	0	0
2.08	-2.80785	1.47082	-1.73793	0.428651	1.43466	0.920542	0.341503	-0.104276	-0.375042	0.213812	0.0956022	0	0	-0.340395	0.00514669	-0.193422	0.233467	0.337685	0	0	-0.25105	-0.046747	-0.243404	-0.205727	-0.163472	0.14195	0.66396	0.518196	0	0	0.195241	-0.48393	0.263515	0.80031	1.3784	0	0
2.09	-2.80558	1.47299	-1.73506	0.428768	1.44598	0.91974	0.335471	-0.101953	-0.378085	0.222893	0.0943394	0	0	-0.339412	-0.00373693	-0.19954	0.257044	0.340877	0	0	-0.24662	-0.043038	-0.248631	-0.209368	-0.164341	0.14059	0.665249	0.519001	0	0	0.187857	-0.480015	0.263843	0.794536	1.37824	0	0
2.1	-2.81501	1.47693	-1.7208	0.429068	1.45738	0.918868	0.330757	-0.0971523	-0.380365	0.227491	0.0857033	0	0	-0.33237	-0.0163375	-0.212059	0.291027	0.347636	0	0	-0.240223	-0.037898	-0.253011	-0.21328	-0.164437	0.135395	0.666209	0.526941	0	0	0.180159	-0.476468	0.268296	0.788291	1.36195	0	0
2.11	-2.81992	1.47875	-1.71234	0.429407	1.46896	0.918438	0.322922	-0.0930017	-0.380365	0.226438	0.0659407	0	0	-0.331372	-0.0257555	-0.213925	0.315092	0.344529	0	0	-0.235933	-0.0334507	-0.256391	-0.216591	-0.165691	0.134461	0.666938	0.52386	0	0	0.171706	-0.471297	0.267258	0.780687	1.36592	0	0
2.12	-2.84172	1.48103	-1.68742	0.429954	1.48065	0.918137	0.314811	-0.0873069	-0.382702	0.223293	0.0387864	0	0	-0.326436	-0.0385001	-0.219837	0.346644	0.342074	0	0	-0.231171	-0.027487	-0.258774	-0.219751	-0.166922	0.133357	0.66671	0.520124	0	0	0.163071	-0.465777	0.266681	0.771933	1.36947	0	0
2.13	-2.87583	1.48325	-1.65124	0.43073	1.4924	0.917995	0.307584	-0.0814693	-0.387491	0.22457	0.0151088	0	0	-0.318638	-0.0531724	-0.2268	0.383734	0.337488	0	0	-0.226479	-0.0206547	-0.259594	-0.222712	-0.168556	0.132877	0.665968	0.516374	0	0	0.154387	-0.459901	0.266209	0.762538	1.37314	0	0
2.14	-2.92216	1.48506	-1.60382	0.431678	1.50422	0.918038	0.301739	-0.0758017	-0.393747	0.232786	0.000275236	0	0	-0.308438	-0.069353	-0.232675	0.425583	0.328684	0	0	-0.222037	-0.0130431	-0.259016	-0.225559	-0.170387	0.132761	0.664687	0.512633	0	0	0.145454	-0.453477	0.265143	0.752762	1.37711	0	0
2.15	-2.98714	1.48633	-1.5382	0.432713	1.51605	0.918301	0.297148	-0.0693359	-0.398085	0.246557	-0.00498715	0	0	-0.295246	-0.0875518	-0.236015	0.472317	0.31479	0	0	-0.217964	-0.00391813	-0.2574	-0.228282	-0.172376	0.132373	0.662957	0.508799	0	0	0.136595	-0.446415	0.263941	0.742461	1.3815	0	0
2.16	-3.07429	1.4872	-1.45132	0.433844	1.52779	0.918735	0.293906	-0.060918	-0.398908	0.2637	-0.00275268	0	0	-0.277835	-0.10784	-0.236943	0.524518	0.294294	0	0	-0.213997	0.00701223	-0.254417	-0.230608	-0.174707	0.131738	0.66075	0.504789	0	0	0.127725	-0.438644	0.262426	0.732073	1.38642	0	0
2.17	3.09933	1.48817	-1.34372	0.435162	1.53934	0.919215	0.292544	-0.0503348	-0.397359	0.282256	0.00366812	0	0	-0.254912	-0.129813	-0.235918	0.582	0.265816	0	0	-0.209336	0.0194325	-0.249305	-0.232531	-0.178158	0.133061	0.658477	0.499885	0	0	0.118703	-0.43018	0.260137	0.722122	1.39192	0	0
2.18	2.97139	1.48975	-1.21938	0.436618	1.55068	0.919602	0.292598	-0.0379734	-0.395091	0.298371	0.0103959	0	0	-0.22614	-0.152169	-0.231809	0.642772	0.228582	0	0	-0.202961	0.0325237	-0.242472	-0.234383	-0.182197	0.135273	0.656422	0.493267	0	0	0.109399	-0.421166	0.257268	0.712457	1.39773	0	0
2.19	2.80766	1.49393	-1.05972	0.438164	1.56181	0.919535	0.296641	-0.0243249	-0.393822	0.310881	0.0158185	0	0	-0.188039	-0.175003	-0.223782	0.707522	0.18224	0	0	-0.191359	0.0458531	-0.235633	-0.236704	-0.187665	0.142936	0.655405	0.469923	0	0	0.099033	-0.411581	0.252815	0.702132	1.40458	0	0
2.2	2.64488	1.49684	-0.901615	0.439746	1.57283	0.919437	0.298428	-0.0105706	-0.390444	0.317437	0.019101	0	0	-0.149314	-0.194277	-0.210355	0.768372	0.129288	0	0	-0.179733	0.0573599	-0.229056	-0.239358	-0.194932	0.157922	0.657254	0.429251	0	0	0.0873685	-0.401885	0.243251	0.69342	1.43015	0	0
2.21	2.50113	1.49811	-0.763126	0.441365	1.58377	0.919361	0.29714	0.00270028	-0.38524	0.320094	0.0227848	0	0	-0.112453	-0.210102	-0.195102	0.82484	0.0755984	0	0	-0.169497	0.0666914	-0.221685	-0.242539	-0.199736	0.163837	0.657533	0.418581	0	0	0.0754632	-0.39466	0.241051	0.68873	1.43256	0	0
2.22	2.38872	1.49803	-0.65672	0.443057	1.5947	0.919399	0.292797	0.0151345	-0.378506	0.321024	0.0285006	0	0	-0.0789469	-0.22323	-0.181085	0.877572	0.0289806	0	0	-0.161317	0.0738538	-0.213337	-0.246211	-0.202364	0.161595	0.656652	0.430086	0	0	0.0635975	-0.388686	0.241122	0.685898	1.42958	0	0
2.23	2.29419	1.49733	-0.568737	0.444861	1.60563	0.919515	0.287034	0.0272939	-0.369651	0.321404	0.0361105	0	0	-0.0473337	-0.235161	-0.169914	0.927883	-0.00518579	0	0	-0.153823	0.0795773	-0.205061	-0.25033	-0.208111	0.172729	0.659973	0.402445	0	0	0.0510081	-0.38281	0.237722	0.683047	1.43569	0	0
2.24	2.26618	1.49582	-0.546673	0.446576	1.61643	0.920207	0.276456	0.0368308	-0.360151	0.321931	0.0444469	0	0	-0.0220878	-0.242824	-0.159351	0.971329	-0.0207943	0	0	-0.151554	0.082588	-0.196977	-0.253347	-0.209227	0.169323	0.658707	0.41313	0	0	0.0398888	-0.378384	0.237095	0.680859	1.43422	0	0
2.25	2.27974	1.49437	-0.565647	0.448171	1.62696	0.921341	0.26326	0.0441502	-0.349125	0.32278	0.0529955	0	0	-0.000260325	-0.246824	-0.149037	1.00912	-0.021326	0	0	-0.152664	0.0834805	-0.189577	-0.255303	-0.210539	0.169564	0.658036	0.409314	0	0	0.0298396	-0.374312	0.235607	0.678308	1.4354	0	0
2.26	2.3392	1.49237	-0.630017	0.449636	1.63722	0.922981	0.246412	0.0490926	-0.338031	0.323464	0.0615397	0	0	0.0176283	-0.247408	-0.138383	1.04284	-0.0107631	0	0	-0.158016	0.0823022	-0.182582	-0.256072	-0.210789	0.168053	0.656374	0.406298	0	0	0.0212626	-0.370758	0.234441	0.675533	1.43654	0	0
2.27	2.42309	1.48992	-0.718402	0.451066	1.64733	0.92494	0.226928	0.0521674	-0.328271	0.322968	0.0703947	0	0	0.0331953	-0.246067	-0.128532	1.07416	0.00963448	0	0	-0.165653	0.0793056	-0.175889	-0.256306	-0.210259	0.165769	0.653793	0.40293	0	0	0.0136358	-0.367824	0.23381	0.672375	1.43746	0	0
2.28	2.50659	1.48777	-0.805713	0.45242	1.65729	0.926958	0.20692	0.0537133	-0.320577	0.320819	0.0789265	0	0	0.0489203	-0.243536	-0.119906	1.10219	0.0350696	0	0	-0.172942	0.07506	-0.169691	-0.256685	-0.207555	0.157507	0.649341	0.407221	0	0	0.00680578	-0.366413	0.23963	0.669345	1.42034	0	0
